HIERARCHY
ROOT Hips
{
	OFFSET 0.000000 0.000000 0.000000
	CHANNELS 6 Xposition Yposition Zposition Yrotation Xrotation Zrotation
	JOINT Chest
	{
		OFFSET 0.000000 11.569106 -0.009283
		CHANNELS 6 Xposition Yposition Zposition Yrotation Xrotation Zrotation
		JOINT Chest2
		{
			OFFSET 0.000000 9.269641 0.016863
			CHANNELS 6 Xposition Yposition Zposition Yrotation Xrotation Zrotation
			JOINT Chest3
			{
				OFFSET 0.000000 8.374491 0.000000
				CHANNELS 6 Xposition Yposition Zposition Yrotation Xrotation Zrotation
				JOINT Chest4
				{
					OFFSET 0.000000 8.374493 0.000000
					CHANNELS 6 Xposition Yposition Zposition Yrotation Xrotation Zrotation
					JOINT Neck
					{
						OFFSET 0.000000 12.152554 0.000000
						CHANNELS 6 Xposition Yposition Zposition Yrotation Xrotation Zrotation
						JOINT Head
						{
							OFFSET 0.000000 7.802319 0.040100
							CHANNELS 6 Xposition Yposition Zposition Yrotation Xrotation Zrotation
							End Site
							{
								OFFSET 0.000000 14.853096 0.020945
							}
						}
					}
					JOINT RightCollar
					{
						OFFSET -2.894404 6.791374 0.000000
						CHANNELS 6 Xposition Yposition Zposition Yrotation Xrotation Zrotation
						JOINT RightShoulder
						{
							OFFSET -13.574684 0.000000 0.000000
							CHANNELS 6 Xposition Yposition Zposition Yrotation Xrotation Zrotation
							JOINT RightElbow
							{
								OFFSET -23.923903 0.000000 0.000000
								CHANNELS 6 Xposition Yposition Zposition Yrotation Xrotation Zrotation
								JOINT RightWrist
								{
									OFFSET -19.846718 0.000000 0.012765
									CHANNELS 6 Xposition Yposition Zposition Yrotation Xrotation Zrotation
									End Site
									{
										OFFSET -14.973145 0.000000 0.000000
									}
								}
							}
						}
					}
					JOINT LeftCollar
					{
						OFFSET 2.894404 6.791374 0.000000
						CHANNELS 6 Xposition Yposition Zposition Yrotation Xrotation Zrotation
						JOINT LeftShoulder
						{
							OFFSET 13.574684 0.000000 0.000000
							CHANNELS 6 Xposition Yposition Zposition Yrotation Xrotation Zrotation
							JOINT LeftElbow
							{
								OFFSET 23.923903 0.000000 0.000000
								CHANNELS 6 Xposition Yposition Zposition Yrotation Xrotation Zrotation
								JOINT LeftWrist
								{
									OFFSET 19.846718 0.000000 0.012765
									CHANNELS 6 Xposition Yposition Zposition Yrotation Xrotation Zrotation
									End Site
									{
										OFFSET 14.973145 0.000000 0.000000
									}
								}
							}
						}
					}
				}
			}
		}
	}
	JOINT RightHip
	{
		OFFSET -9.469263 0.045487 0.004642
		CHANNELS 6 Xposition Yposition Zposition Yrotation Xrotation Zrotation
		JOINT RightKnee
		{
			OFFSET 0.000000 -40.478676 0.002668
			CHANNELS 6 Xposition Yposition Zposition Yrotation Xrotation Zrotation
			JOINT RightAnkle
			{
				OFFSET 0.000000 -35.224068 0.049112
				CHANNELS 6 Xposition Yposition Zposition Yrotation Xrotation Zrotation
				JOINT RightToe
				{
					OFFSET 0.000000 -6.151390 12.539530
					CHANNELS 6 Xposition Yposition Zposition Yrotation Xrotation Zrotation
					End Site
					{
						OFFSET 0.000000 -1.291870 5.044995
					}
				}
			}
		}
	}
	JOINT LeftHip
	{
		OFFSET 9.469263 0.045487 0.004642
		CHANNELS 6 Xposition Yposition Zposition Yrotation Xrotation Zrotation
		JOINT LeftKnee
		{
			OFFSET 0.000000 -40.478676 0.002668
			CHANNELS 6 Xposition Yposition Zposition Yrotation Xrotation Zrotation
			JOINT LeftAnkle
			{
				OFFSET 0.000000 -35.224068 0.049112
				CHANNELS 6 Xposition Yposition Zposition Yrotation Xrotation Zrotation
				JOINT LeftToe
				{
					OFFSET 0.000000 -6.151390 12.539530
					CHANNELS 6 Xposition Yposition Zposition Yrotation Xrotation Zrotation
					End Site
					{
						OFFSET 0.000000 -1.291870 5.044995
					}
				}
			}
		}
	}
}
MOTION
Frames: 6
Frame Time: 0.016667
-13.573322 83.093903 -0.123930 -113.859691 -6.941648 -0.495479 -0.000000 11.569097 -0.009285 -0.155595 3.840359 -0.802065 0.000000 9.269642 0.016861 -0.051224 1.705374 -0.346733 -0.000001 8.374490 0.000000 -0.051228 1.705374 -0.346733 0.000000 8.374484 0.000001 -0.037448 1.279060 -0.259888 -0.000000 12.152567 -0.000000 2.103993 18.076241 1.189746 0.000001 7.802300 0.040102 3.475488 -2.619601 1.487978 -2.894404 6.791374 -0.000000 0.337738 -1.073213 11.645258 -13.574685 -0.000005 -0.000000 -1.952012 -0.441975 79.312546 -23.923916 0.000000 0.000001 0.528619 5.977067 0.722167 -19.846720 0.000002 0.012765 4.417143 -2.701987 -2.252496 2.894405 6.791373 -0.000000 2.730834 -0.224077 -8.618929 13.574686 -0.000005 -0.000001 -3.860043 1.521376 -79.166448 23.923903 0.000001 -0.000000 -1.329409 5.315580 0.260488 19.846718 0.000001 0.012766 -6.801067 1.943191 5.655967 -9.469263 0.045480 0.004640 -3.248166 9.325801 1.868685 -0.000290 -40.478840 0.002648 -6.240658 3.347340 0.741757 0.000428 -35.223824 0.049065 9.243564 -5.264906 -2.396486 0.000000 -6.151397 12.539527 -0.001722 0.013805 -0.037665 9.469264 0.045478 0.004640 1.070000 9.895039 -1.524284 0.000233 -40.478771 0.002655 4.979004 2.038398 -0.626101 0.000396 -35.223846 0.049075 8.573767 -4.623545 1.405914 -0.000001 -6.151399 12.539532 -0.001446 -0.067027 0.147560 
-13.559875 83.101433 -0.138498 -113.856549 -6.904908 -0.480664 -0.000001 11.569113 -0.009287 -0.164279 3.840469 -0.812313 0.000000 9.269647 0.016863 -0.053744 1.705030 -0.350820 -0.000000 8.374485 -0.000000 -0.053744 1.705030 -0.350820 -0.000001 8.374484 0.000001 -0.039322 1.278804 -0.262946 -0.000000 12.152563 -0.000000 2.100630 18.078280 1.196556 0.000002 7.802301 0.040102 3.467027 -2.615957 1.501667 -2.894403 6.791378 -0.000000 0.353416 -1.079772 11.638751 -13.574685 -0.000002 0.000001 -1.939688 -0.440986 79.309691 -23.923901 0.000003 -0.000001 0.552264 5.972482 0.741092 -19.846706 0.000002 0.012765 4.382944 -2.698999 -2.231561 2.894403 6.791378 0.000000 2.738947 -0.207772 -8.617560 13.574680 -0.000006 0.000002 -3.886470 1.482958 -79.155875 23.923899 -0.000000 0.000002 -1.318485 5.281933 0.260178 19.846716 -0.000004 0.012766 -6.782102 1.952684 5.640606 -9.469263 0.045489 0.004638 -3.132495 9.342156 1.861785 -0.000294 -40.478821 0.002646 -6.304719 3.227266 0.802684 0.000426 -35.223824 0.049064 9.199841 -5.197862 -2.414234 -0.000001 -6.151388 12.539527 0.003851 0.016366 -0.038358 9.469261 0.045493 0.004638 1.013592 9.830963 -1.507794 0.000233 -40.478767 0.002656 5.043011 2.073377 -0.683861 0.000399 -35.223854 0.049072 8.631430 -4.580368 1.354294 0.000000 -6.151393 12.539532 -0.003567 -0.090870 0.168552 
-13.541043 83.112946 -0.138865 -113.868993 -6.839836 -0.447967 -0.000001 11.569108 -0.009284 -0.166284 3.832156 -0.836603 0.000000 9.269635 0.016863 -0.052057 1.701078 -0.358967 0.000000 8.374487 0.000001 -0.052058 1.701078 -0.358967 0.000001 8.374484 0.000000 -0.038042 1.275839 -0.269060 -0.000000 12.152559 0.000001 2.096080 18.074812 1.210375 0.000003 7.802345 0.040100 3.454054 -2.622668 1.528549 -2.894405 6.791382 0.000001 0.364111 -1.067140 11.630794 -13.574682 -0.000001 0.000001 -1.913186 -0.469273 79.318072 -23.923899 0.000004 0.000001 0.566330 5.962490 0.763202 -19.846737 -0.000004 0.012764 4.381056 -2.725809 -2.237474 2.894404 6.791384 0.000001 2.744489 -0.214104 -8.616018 13.574686 0.000007 -0.000002 -3.940801 1.474421 -79.136983 23.923903 0.000004 0.000000 -1.318261 5.208404 0.262464 19.846718 0.000003 0.012764 -6.768065 1.954454 5.627821 -9.469265 0.045489 0.004643 -2.898827 9.307972 1.840992 -0.000296 -40.478813 0.002649 -6.363220 3.119488 0.914394 0.000416 -35.223816 0.049068 8.985472 -5.129249 -2.437946 0.000001 -6.151396 12.539529 0.007213 0.023095 -0.052887 9.469261 0.045488 0.004641 0.972865 9.720026 -1.492287 0.000237 -40.478771 0.002655 5.105568 2.139949 -0.739727 0.000395 -35.223858 0.049075 8.533563 -4.510554 1.286466 0.000000 -6.151399 12.539531 -0.008153 -0.134176 0.195485 
-13.501100 83.129814 -0.148121 -113.915527 -6.749250 -0.400585 -0.000000 11.569102 -0.009282 -0.156678 3.808554 -0.864555 0.000000 9.269646 0.016864 -0.046930 1.690713 -0.370954 0.000000 8.374484 -0.000000 -0.046929 1.690713 -0.370954 -0.000000 8.374496 -0.000000 -0.034166 1.268064 -0.278065 0.000000 12.152548 0.000002 2.093451 18.071706 1.225669 0.000000 7.802323 0.040105 3.444116 -2.628730 1.557513 -2.894404 6.791376 0.000000 0.370745 -1.056132 11.619128 -13.574686 0.000008 0.000000 -1.857903 -0.486449 79.345993 -23.923904 0.000004 -0.000001 0.573198 5.916302 0.764888 -19.846718 0.000003 0.012765 4.419169 -2.733330 -2.255919 2.894404 6.791386 0.000000 2.747662 -0.222005 -8.618055 13.574683 0.000002 -0.000001 -3.968112 1.478739 -79.116267 23.923887 -0.000003 0.000001 -1.328561 5.138315 0.261848 19.846724 0.000003 0.012763 -6.757612 1.951175 5.636980 -9.469264 0.045479 0.004643 -2.470248 9.218549 1.805566 -0.000298 -40.478828 0.002647 -6.403960 3.047580 1.054974 0.000409 -35.223831 0.049071 8.811557 -5.067261 -2.443073 0.000000 -6.151391 12.539525 0.014678 0.031574 -0.089591 9.469263 0.045485 0.004643 0.963435 9.548569 -1.489993 0.000240 -40.478783 0.002655 5.142904 2.247970 -0.791187 0.000396 -35.223862 0.049077 8.531652 -4.414154 1.185561 -0.000001 -6.151381 12.539532 -0.008666 -0.196044 0.237475 
-13.451343 83.153091 -0.138525 -113.989423 -6.638997 -0.324275 0.000000 11.569108 -0.009283 -0.145371 3.775971 -0.909449 -0.000001 9.269648 0.016862 -0.040395 1.676369 -0.387150 -0.000001 8.374482 0.000000 -0.040394 1.676369 -0.387150 -0.000000 8.374479 -0.000000 -0.029230 1.257303 -0.290231 -0.000000 12.152553 0.000000 2.092193 18.069733 1.238721 -0.000000 7.802323 0.040098 3.437451 -2.632631 1.581916 -2.894404 6.791364 0.000001 0.385763 -1.072770 11.616393 -13.574688 -0.000002 0.000001 -1.804826 -0.478146 79.374011 -23.923906 0.000004 0.000001 0.588595 5.869197 0.756367 -19.846722 -0.000000 0.012765 4.444212 -2.735804 -2.264913 2.894404 6.791365 0.000000 2.762609 -0.242624 -8.623960 13.574684 0.000015 -0.000002 -3.955309 1.485652 -79.094014 23.923904 0.000003 0.000001 -1.323503 5.095589 0.267138 19.846725 0.000001 0.012766 -6.775609 1.933447 5.658492 -9.469262 0.045490 0.004641 -1.889576 9.059180 1.769346 -0.000298 -40.478809 0.002648 -6.419612 3.024121 1.200443 0.000390 -35.223831 0.049073 8.417324 -5.027421 -2.409769 0.000000 -6.151391 12.539528 0.011843 0.047936 -0.152391 9.469264 0.045489 0.004643 0.968942 9.324821 -1.501728 0.000238 -40.478794 0.002655 5.121980 2.402505 -0.855576 0.000395 -35.223881 0.049076 8.579308 -4.281259 1.066390 0.000001 -6.151377 12.539531 -0.008873 -0.284123 0.284915 
-13.376555 83.183052 -0.127985 -114.092737 -6.491227 -0.225877 0.000000 11.569093 -0.009285 -0.127165 3.728064 -0.963713 0.000000 9.269641 0.016862 -0.032737 1.655754 -0.408491 -0.000000 8.374489 -0.000001 -0.032737 1.655754 -0.408491 0.000001 8.374496 0.000000 -0.023444 1.241838 -0.306258 0.000001 12.152568 0.000001 2.090770 18.067249 1.248054 0.000000 7.802304 0.040096 3.431718 -2.637415 1.599523 -2.894403 6.791383 0.000000 0.397204 -1.083409 11.614538 -13.574687 -0.000009 0.000002 -1.758321 -0.483162 79.388361 -23.923906 0.000003 0.000000 0.621426 5.841222 0.767053 -19.846701 0.000002 0.012764 4.446483 -2.724995 -2.251081 2.894406 6.791378 0.000000 2.771438 -0.254379 -8.626583 13.574683 0.000005 -0.000000 -3.928985 1.472468 -79.081221 23.923912 -0.000005 -0.000000 -1.295968 5.035528 0.288020 19.846714 0.000003 0.012764 -6.818016 1.908939 5.701474 -9.469263 0.045475 0.004640 -1.264363 8.836859 1.694982 -0.000302 -40.478821 0.002646 -6.500491 3.024795 1.362087 0.000376 -35.223835 0.049078 8.102143 -4.989439 -2.372458 0.000000 -6.151391 12.539530 0.013708 0.065788 -0.209100 9.469263 0.045473 0.004640 0.962772 9.006941 -1.538763 0.000236 -40.478794 0.002653 5.093502 2.628471 -0.917229 0.000404 -35.223869 0.049075 8.743930 -4.109670 0.919981 -0.000001 -6.151376 12.539528 -0.007521 -0.398003 0.337484 
